<?xml version="1.0" encoding="UTF-8" standalone="no"?>
<!DOCTYPE svg PUBLIC "-//W3C//DTD SVG 1.1//EN" "http://www.w3.org/Graphics/SVG/1.1/DTD/svg11.dtd">
<svg width="100%" height="100%" viewBox="0 0 753 245" version="1.1" xmlns="http://www.w3.org/2000/svg" xmlns:xlink="http://www.w3.org/1999/xlink" xml:space="preserve" xmlns:serif="http://www.serif.com/" style="fill-rule:evenodd;clip-rule:evenodd;stroke-linejoin:round;stroke-miterlimit:2;">
    <g transform="matrix(1,0,0,1,-1.26563,-3.8147e-06)">
        <g transform="matrix(250,0,0,250,0,197.484)">
            <path d="M0.458,-0.7L0.005,-0.7L0.005,-0.693C0.113,-0.693 0.113,-0.641 0.113,-0.52L0.113,-0.18C0.113,-0.063 0.113,-0.007 0.005,-0.007L0.005,-0L0.656,-0L0.719,-0.314L0.712,-0.314C0.674,-0.142 0.575,-0.008 0.399,-0.008C0.325,-0.008 0.319,-0.032 0.319,-0.131L0.319,-0.52C0.319,-0.654 0.322,-0.693 0.458,-0.693L0.458,-0.7Z" style="fill-rule:nonzero;"/>
        </g>
        <g transform="matrix(250,0,0,250,181,197.484)">
            <path d="M0.315,-0.532C0.152,-0.532 0.025,-0.418 0.025,-0.262C0.025,-0.107 0.152,0.007 0.315,0.007C0.479,0.007 0.606,-0.107 0.606,-0.262C0.606,-0.418 0.479,-0.532 0.315,-0.532ZM0.315,-0.001C0.228,-0.001 0.228,-0.145 0.228,-0.262C0.228,-0.376 0.228,-0.524 0.315,-0.524C0.403,-0.524 0.403,-0.376 0.403,-0.262C0.403,-0.145 0.403,-0.001 0.315,-0.001Z" style="fill-rule:nonzero;"/>
        </g>
        <g transform="matrix(250,0,0,250,338.75,197.484)">
            <path d="M0.248,0.189C0.441,0.189 0.583,0.106 0.583,-0.031C0.583,-0.163 0.453,-0.185 0.352,-0.185C0.319,-0.185 0.277,-0.183 0.248,-0.183C0.141,-0.183 0.081,-0.205 0.16,-0.263C0.203,-0.25 0.245,-0.242 0.283,-0.242C0.426,-0.242 0.53,-0.308 0.53,-0.4C0.53,-0.475 0.422,-0.539 0.313,-0.539C0.306,-0.585 0.342,-0.6 0.374,-0.6C0.407,-0.6 0.443,-0.584 0.438,-0.553C0.485,-0.556 0.521,-0.591 0.521,-0.638C0.521,-0.687 0.483,-0.72 0.426,-0.72C0.329,-0.72 0.273,-0.627 0.306,-0.539C0.211,-0.542 0.052,-0.493 0.052,-0.382C0.052,-0.323 0.102,-0.283 0.152,-0.267C0.069,-0.222 0.015,-0.175 0.015,-0.121C0.015,-0.019 0.133,-0.004 0.233,-0.004C0.279,-0.004 0.321,-0.006 0.347,-0.006C0.427,-0.006 0.47,0.021 0.47,0.068C0.47,0.135 0.383,0.18 0.258,0.18C0.165,0.18 0.137,0.156 0.137,0.122C0.137,0.097 0.15,0.076 0.171,0.07C0.169,0.025 0.13,0.003 0.094,0.003C0.056,0.003 0.019,0.026 0.019,0.076C0.019,0.166 0.139,0.189 0.248,0.189ZM0.287,-0.531C0.336,-0.531 0.361,-0.482 0.361,-0.388C0.361,-0.333 0.36,-0.25 0.294,-0.25C0.243,-0.25 0.22,-0.296 0.22,-0.395C0.22,-0.492 0.238,-0.531 0.287,-0.531L0.287,-0.531Z" style="fill-rule:nonzero;"/>
        </g>
        <g transform="matrix(250,0,0,250,484.5,197.484)">
            <path d="M0.368,-0L0.368,-0.007C0.29,-0.007 0.281,-0.027 0.281,-0.134L0.281,-0.532L-0.005,-0.455L-0.003,-0.448C0.082,-0.468 0.096,-0.441 0.096,-0.374L0.096,-0.134C0.096,-0.027 0.087,-0.007 0.009,-0.007L0.009,-0L0.368,-0ZM0.188,-0.79C0.129,-0.79 0.08,-0.742 0.08,-0.683C0.08,-0.623 0.129,-0.574 0.188,-0.574C0.248,-0.574 0.296,-0.623 0.296,-0.683C0.296,-0.743 0.248,-0.79 0.188,-0.79Z" style="fill-rule:nonzero;"/>
        </g>
        <g transform="matrix(250,0,0,250,577.75,197.484)">
            <path d="M0.704,-0L0.704,-0.007C0.626,-0.007 0.617,-0.027 0.617,-0.134L0.617,-0.385C0.617,-0.487 0.582,-0.532 0.501,-0.532C0.44,-0.532 0.379,-0.505 0.28,-0.424L0.283,-0.532L-0.005,-0.455L-0.003,-0.448C0.082,-0.468 0.096,-0.441 0.096,-0.374L0.096,-0.134C0.096,-0.027 0.087,-0.007 0.009,-0.007L0.009,-0L0.336,-0L0.336,-0.007C0.282,-0.007 0.281,-0.051 0.281,-0.114L0.281,-0.415C0.311,-0.441 0.345,-0.454 0.369,-0.454C0.427,-0.454 0.432,-0.4 0.432,-0.359L0.432,-0.114C0.432,-0.034 0.431,-0.007 0.378,-0.007L0.378,-0L0.704,-0Z" style="fill-rule:nonzero;"/>
        </g>
    </g>
</svg>
